# xmcd
#
# Track frame offsets: 
#        150
#        14439
#        30235
#        44856
#        57991
#        71439
#        88295
#        103890
#        116077
#        132986
#        148531
#        170596
#        187032
#        200386
#        216871
#        231235
#        246536
#        261843
#        277496
#        293657
#        312326
#        338278
#
# Disc length: 4764 seconds
#
# Revision: 14
# Processed by: cddbd v1.5.2PL0 Copyright (c) Steve Scherf et al.
# Submitted via: ExactAudioCopy v1.0b3
#
DISCID=61129a16
DTITLE=Various Artist - Karneval der Stars - Folge 34
DYEAR=2004
DGENRE=Folk
TTITLE0=Höhner - Viva Colonia
TTITLE1=Rabaue - Das Insellied ... mit dir allein
TTITLE2=De Boore - Danze dun ich nur mit dir
TTITLE3=Paveier - Rosalie
TTITLE4=Die Kalauer - Schööön ist die Liebe
TTITLE5=Ne Bergische Jung - Wenn ich vür mingem Herrjott stonn
TTITLE6=Colör - Ich bin alleine hier
TTITLE7=Die 3 Colonias - Man muss doch nicht immer verheiratet sein
TTITLE8=Die Rheinländer - Alte Liebe
TTITLE9=Räuber - Ding Auge
TTITLE10=Bläck Fööss - Unser Jrundjesetz
TTITLE11=Brings - Poppe, Kaate, Danze
TTITLE12=Die Filue - Liebelein
TTITLE13=Blom and Blömcher - En knallrude Pappnas
TTITLE14=Superhohn Jürgen Wunderlich - E janz klei Stück vun Kölle
TTITLE15=Räuber - Ich habe was, was du nicht hast
TTITLE16=Marita Köllner - Es war in Altenahr
TTITLE17=Paveier - Düxer Strandclub
TTITLE18=Bläck Föss - Rut un wiess
TTITLE19=Bruce Kapusta - Dä Clown für Üch
TTITLE20=De Boore - Rut sin de Ruse (jojojo)
TTITLE21=DATA
EXTD=YEAR: 2004
EXTT0=
EXTT1=
EXTT2=
EXTT3=
EXTT4=
EXTT5=
EXTT6=
EXTT7=
EXTT8=
EXTT9=
EXTT10=
EXTT11=
EXTT12=
EXTT13=
EXTT14=
EXTT15=
EXTT16=
EXTT17=
EXTT18=
EXTT19=
EXTT20=
EXTT21=
PLAYORDER=
